<svg id="Layer_1" data-name="Layer 1" xmlns="http://www.w3.org/2000/svg" viewBox="0 0 378.19 378.19"><defs><style>.cls-1{fill:#3c71b0;}.cls-2{fill:#f5f4f5;}</style></defs><title>logo</title><path class="cls-1" d="M189.5,379q-92.25,0-184.5.1c-3.42,0-4.1-.67-4.1-4.1Q1.07,190,.9,5C0.9,1.58,1.58.9,5,.9q185,0.17,370,0c3.42,0,4.1.67,4.1,4.1q-0.17,185,0,370c0,3.42-.67,4.1-4.1,4.1Q282.25,378.9,189.5,379ZM127.35,229.32c0,5.66-.26,11.34.07,17a122.53,122.53,0,0,0,2,17.18c2.3,11.31,6.46,21.85,15.06,30.05,5.18,4.94,10.45,4.59,14.89-.95,3-3.7,4.09-8.22,5.27-12.67,3.57-13.51,2.66-27.56,5-41.23,1.5-8.75,4.39-16.87,10.34-23.65,7-7.94,14.06-8.12,21.5-.57a36.79,36.79,0,0,1,7.87,13c4.93,12.89,4.42,26.57,5.92,40,0.95,8.41,2.31,16.65,6.88,24,3.86,6.21,11.45,7.4,16.21,1.93a63.53,63.53,0,0,0,14.3-29.48c2.74-13.46,1.94-27.09,2-40.68a165.84,165.84,0,0,1,8.61-53c6.24-18.52,12.4-37.16,10.53-57.37C272.55,99.32,263.05,87,249.93,83.24c-8-2.28-15.49.08-22.77,2.31a120.31,120.31,0,0,1-67.73,1.19c-6.49-1.74-12.94-3.91-19.73-4.38-16-1.11-30.29,14.74-31.39,31-1.12,16.48,2.35,32.2,7.68,47.56C123.68,183.09,129.08,205.6,127.35,229.32Z" transform="translate(-0.9 -0.9)"/><path class="cls-2" d="M127.35,229.32c1.73-23.72-3.68-46.22-11.38-68.41-5.33-15.36-8.79-31.08-7.68-47.56,1.1-16.25,15.36-32.1,31.39-31,6.79,0.47,13.24,2.64,19.73,4.38a120.31,120.31,0,0,0,67.73-1.19c7.28-2.22,14.78-4.58,22.77-2.31C263.05,87,272.55,99.32,273.8,112.9c1.87,20.21-4.29,38.85-10.53,57.37a165.84,165.84,0,0,0-8.61,53c0,13.58.75,27.21-2,40.68a63.53,63.53,0,0,1-14.3,29.48c-4.76,5.47-12.34,4.28-16.21-1.93-4.57-7.35-5.93-15.59-6.88-24-1.51-13.38-1-27.07-5.92-40a36.79,36.79,0,0,0-7.87-13c-7.43-7.56-14.53-7.37-21.5.57-6,6.79-8.84,14.91-10.34,23.65-2.35,13.66-1.44,27.72-5,41.23-1.18,4.46-2.31,9-5.27,12.67-4.44,5.54-9.71,5.88-14.89.95-8.61-8.2-12.76-18.74-15.06-30.05a122.53,122.53,0,0,1-2-17.18C127.09,240.66,127.35,235,127.35,229.32Z" transform="translate(-0.9 -0.9)"/></svg>